# xmcd
#
# Track frame offsets:
#	150
#	15540
#	28992
#	43020
#	58902
#	76250
#	90295
#	104617
#	117220
#	128975
#	143885
#	159767
#	173770
#	187450
#	202047
#
# Disc length: 2943 seconds
#
# Revision: 0
# Processed by: cddbd v1.5.2PL0 Copyright (c) Steve Scherf et al.
# Submitted via: audiograbber 1.83.01
#
DISCID=cf0b7d0f
DTITLE=Sound Choice - 70's and 80's Country - Vol. 32 SC8792
DYEAR=1900
DGENRE=Karaoke
TTITLE0=Billy 'Crash' Craddock - I Love The Blues and The Boogie Woogie
TTITLE1=Moe Bandy - Two Lonely People
TTITLE2=The Desert Rose Band - Love Reunited
TTITLE3=Dennis Robbins - Padre
TTITLE4=John Conlee - In My Eyes
TTITLE5=The Sweethearts Of The Rodeo - Since I Found You
TTITLE6=Exile - I Could Get Used To You
TTITLE7=Earl Thomas Conley - I Have Loved You, Girl (But Not Like This)
TTITLE8=Buck Owens - Rollin' In My Sweet Baby's Arms
TTITLE9=Dolly Parton - I Really got The Feeling
TTITLE10=Donna Fargo - That Was Yesterday
TTITLE11=Vern Gosdin - Til The End
TTITLE12=Charley Pride - I'd Rather Love You
TTITLE13=Tommy Overstreet - I'll Never Break These Chains
TTITLE14=Freddie Hart - Got The All Overs For You (All Over Me)
EXTD=
EXTT0=
EXTT1=
EXTT2=
EXTT3=
EXTT4=
EXTT5=
EXTT6=
EXTT7=
EXTT8=
EXTT9=
EXTT10=
EXTT11=
EXTT12=
EXTT13=
EXTT14=
PLAYORDER=
